<?xml version="1.0" standalone="no"?>
<!DOCTYPE svg PUBLIC "-//W3C//DTD SVG 20010904//EN" "http://www.w3.org/TR/2001/REC-SVG-20010904/DTD/svg10.dtd">
<svg version="1.0" xmlns="http://www.w3.org/2000/svg"
    width="812.000000pt" height="876.000000pt" viewBox="0 0 812.000000 876.000000"
    preserveAspectRatio="xMidYMid meet">

    <g transform="translate(0.000000,876.000000) scale(0.100000,-0.100000)"
        fill="#8C52FF" stroke="white">
        <path
            d="M3700 6770 c-94 -9 -227 -55 -305 -105 -70 -45 -171 -146 -220 -219
-32 -49 -88 -163 -82 -169 1 -1 -5 -21 -15 -42 -16 -39 -58 -156 -139 -390
-23 -66 -52 -149 -65 -185 -21 -59 -79 -224 -241 -685 -30 -88 -78 -223 -105
-300 -66 -185 -168 -476 -228 -650 -27 -77 -74 -212 -106 -300 -31 -88 -87
-248 -124 -355 -38 -107 -92 -260 -120 -340 -29 -80 -63 -176 -76 -215 -13
-38 -44 -128 -69 -200 -26 -71 -51 -148 -57 -170 -30 -123 47 -276 167 -331
50 -23 51 -23 525 -24 318 -1 491 2 525 10 109 24 227 119 278 223 14 30 70
178 123 328 52 151 121 344 151 429 31 85 64 180 74 210 10 30 41 120 69 200
29 80 60 170 70 200 10 30 35 100 55 155 20 55 38 105 39 110 2 6 6 17 9 25
10 23 187 527 208 590 9 30 50 147 89 260 39 113 109 313 155 445 45 132 92
267 104 300 28 77 72 207 75 220 2 6 8 21 13 35 6 14 27 72 46 130 20 58 60
170 88 250 28 80 57 170 64 200 14 63 6 150 -18 196 -29 56 -96 121 -149 145
-52 23 -58 24 -393 25 -187 1 -374 -1 -415 -6z" />
        <path
            d="M5097 5669 c-25 -15 -42 -53 -104 -228 -30 -86 -64 -181 -75 -211
-10 -30 -25 -73 -33 -95 -7 -22 -37 -105 -65 -185 -29 -80 -58 -163 -65 -185
-7 -22 -30 -85 -50 -140 -61 -164 -222 -628 -231 -665 -2 -8 -12 -40 -23 -71
-23 -64 -45 -221 -37 -264 3 -16 8 -52 12 -80 8 -76 24 -127 129 -420 53 -148
98 -277 100 -285 2 -8 17 -51 33 -95 16 -44 48 -136 72 -205 81 -239 130 -318
235 -385 108 -68 87 -66 629 -66 434 0 496 2 531 17 111 45 182 150 184 270 1
54 -8 91 -49 210 -27 80 -53 150 -57 157 -4 7 -8 17 -9 22 -3 16 -49 152 -89
260 -20 55 -43 118 -50 140 -13 40 -178 512 -281 805 -30 85 -90 256 -134 380
-43 124 -104 297 -135 385 -31 88 -61 171 -65 185 -68 208 -255 720 -269 734
-22 22 -78 30 -104 15z" />
        <path
            d="M0 10 c0 -7 1360 -10 4060 -10 2700 0 4060 3 4060 10 0 7 -1360 10
-4060 10 -2700 0 -4060 -3 -4060 -10z" />
    </g>
</svg>